<?xml version="1.0" standalone="no"?>
<!DOCTYPE svg PUBLIC "-//W3C//DTD SVG 20010904//EN"
 "http://www.w3.org/TR/2001/REC-SVG-20010904/DTD/svg10.dtd">
<svg version="1.0" xmlns="http://www.w3.org/2000/svg"
 width="81.000000pt" height="81.000000pt" viewBox="0 0 81.000000 81.000000"
 preserveAspectRatio="xMidYMid meet">
<metadata>
Created by potrace 1.14, written by Peter Selinger 2001-2017
</metadata>
<g transform="translate(0.000000,81.000000) scale(0.100000,-0.100000)"
fill="#000000" stroke="none">
<path d="M195 723 c-9 -32 -41 -132 -71 -222 -30 -91 -54 -170 -54 -177 0 -12
201 -167 208 -160 2 2 -2 22 -8 45 -8 31 -23 51 -65 83 -30 24 -54 50 -54 58
-1 19 62 220 69 220 3 0 27 -69 54 -153 90 -280 130 -397 136 -397 3 0 46 124
95 275 50 151 92 275 95 275 5 0 75 -206 75 -221 0 -4 -25 -27 -56 -52 -41
-34 -58 -56 -68 -87 -7 -23 -11 -44 -8 -46 2 -2 30 16 63 41 32 24 76 57 96
72 50 37 49 56 -10 239 -27 82 -57 175 -67 207 -10 31 -21 57 -25 57 -4 0 -14
-24 -24 -52 -92 -292 -162 -498 -168 -498 -4 0 -12 19 -19 43 -6 23 -39 128
-73 232 -35 105 -69 209 -76 233 -7 23 -16 42 -20 42 -4 0 -15 -26 -25 -57z"/>
</g>
</svg>
