<svg width="372" height="60" viewBox="0 0 372 60" fill="none" xmlns="http://www.w3.org/2000/svg">
<path d="M16.8 46.98C13.856 46.98 11.344 46.468 9.264 45.444C7.216 44.42 5.616 42.948 4.464 41.028C3.344 39.076 2.736 36.756 2.64 34.068C2.608 32.692 2.592 31.22 2.592 29.652C2.592 28.052 2.608 26.548 2.64 25.14C2.736 22.484 3.344 20.212 4.464 18.324C5.616 16.436 7.232 14.98 9.312 13.956C11.424 12.932 13.92 12.42 16.8 12.42C19.136 12.42 21.184 12.74 22.944 13.38C24.704 13.988 26.16 14.788 27.312 15.78C28.496 16.74 29.376 17.78 29.952 18.9C30.56 20.02 30.88 21.06 30.912 22.02C30.944 22.308 30.864 22.548 30.672 22.74C30.48 22.932 30.224 23.028 29.904 23.028H24.96C24.64 23.028 24.4 22.964 24.24 22.836C24.08 22.708 23.936 22.516 23.808 22.26C23.552 21.588 23.152 20.932 22.608 20.292C22.064 19.62 21.328 19.06 20.4 18.612C19.472 18.164 18.272 17.94 16.8 17.94C14.624 17.94 12.88 18.516 11.568 19.668C10.288 20.82 9.6 22.724 9.504 25.38C9.408 28.164 9.408 30.98 9.504 33.828C9.6 36.548 10.304 38.5 11.616 39.684C12.96 40.868 14.72 41.46 16.896 41.46C18.336 41.46 19.616 41.204 20.736 40.692C21.888 40.18 22.784 39.38 23.424 38.292C24.096 37.204 24.432 35.812 24.432 34.116V32.628H18.576C18.256 32.628 17.984 32.516 17.76 32.292C17.536 32.068 17.424 31.78 17.424 31.428V28.884C17.424 28.532 17.536 28.244 17.76 28.02C17.984 27.796 18.256 27.684 18.576 27.684H30.048C30.4 27.684 30.672 27.796 30.864 28.02C31.088 28.244 31.2 28.532 31.2 28.884V33.924C31.2 36.612 30.608 38.932 29.424 40.884C28.272 42.836 26.608 44.34 24.432 45.396C22.288 46.452 19.744 46.98 16.8 46.98ZM38.5054 46.5C38.1854 46.5 37.9134 46.388 37.6894 46.164C37.4654 45.94 37.3534 45.668 37.3534 45.348V14.052C37.3534 13.732 37.4654 13.46 37.6894 13.236C37.9134 13.012 38.1854 12.9 38.5054 12.9H42.9694C43.2894 12.9 43.5614 13.012 43.7854 13.236C44.0094 13.46 44.1214 13.732 44.1214 14.052V40.788H59.3374C59.6894 40.788 59.9774 40.9 60.2014 41.124C60.4254 41.348 60.5374 41.636 60.5374 41.988V45.348C60.5374 45.668 60.4254 45.94 60.2014 46.164C59.9774 46.388 59.6894 46.5 59.3374 46.5H38.5054ZM77.6873 46.98C74.8393 46.98 72.3913 46.516 70.3433 45.588C68.2953 44.628 66.6953 43.172 65.5433 41.22C64.3913 39.236 63.7673 36.772 63.6713 33.828C63.6393 32.452 63.6233 31.092 63.6233 29.748C63.6233 28.404 63.6393 27.028 63.6713 25.62C63.7673 22.708 64.4073 20.276 65.5913 18.324C66.7753 16.372 68.3913 14.9 70.4393 13.908C72.5193 12.916 74.9353 12.42 77.6873 12.42C80.4393 12.42 82.8553 12.916 84.9353 13.908C87.0153 14.9 88.6473 16.372 89.8313 18.324C91.0153 20.276 91.6553 22.708 91.7513 25.62C91.8153 27.028 91.8473 28.404 91.8473 29.748C91.8473 31.092 91.8153 32.452 91.7513 33.828C91.6553 36.772 91.0313 39.236 89.8793 41.22C88.7273 43.172 87.1112 44.628 85.0312 45.588C82.9833 46.516 80.5353 46.98 77.6873 46.98ZM77.6873 41.46C79.7673 41.46 81.4633 40.852 82.7753 39.636C84.0873 38.388 84.7913 36.372 84.8873 33.588C84.9513 32.18 84.9833 30.884 84.9833 29.7C84.9833 28.484 84.9513 27.188 84.8873 25.812C84.8233 23.956 84.4713 22.452 83.8313 21.3C83.2233 20.116 82.3913 19.268 81.3353 18.756C80.2793 18.212 79.0633 17.94 77.6873 17.94C76.3433 17.94 75.1433 18.212 74.0873 18.756C73.0313 19.268 72.1833 20.116 71.5433 21.3C70.9353 22.452 70.5993 23.956 70.5353 25.812C70.5033 27.188 70.4873 28.484 70.4873 29.7C70.4873 30.884 70.5033 32.18 70.5353 33.588C70.6313 36.372 71.3353 38.388 72.6473 39.636C73.9593 40.852 75.6393 41.46 77.6873 41.46ZM99.3023 46.5C98.9823 46.5 98.7103 46.388 98.4863 46.164C98.2623 45.94 98.1503 45.668 98.1503 45.348V14.1C98.1503 13.748 98.2623 13.46 98.4863 13.236C98.7103 13.012 98.9823 12.9 99.3023 12.9H113.222C115.814 12.9 117.926 13.3 119.558 14.1C121.19 14.868 122.39 15.94 123.158 17.316C123.958 18.692 124.358 20.292 124.358 22.116C124.358 23.332 124.134 24.404 123.686 25.332C123.27 26.228 122.742 26.964 122.102 27.54C121.494 28.116 120.886 28.564 120.278 28.884C121.526 29.46 122.63 30.42 123.59 31.764C124.55 33.108 125.03 34.708 125.03 36.564C125.03 38.484 124.598 40.196 123.734 41.7C122.87 43.204 121.59 44.388 119.894 45.252C118.198 46.084 116.102 46.5 113.606 46.5H99.3023ZM104.822 41.412H112.838C114.566 41.412 115.878 40.948 116.774 40.02C117.67 39.06 118.118 37.908 118.118 36.564C118.118 35.156 117.654 33.988 116.726 33.06C115.83 32.132 114.534 31.668 112.838 31.668H104.822V41.412ZM104.822 26.676H112.358C114.054 26.676 115.318 26.276 116.15 25.476C117.014 24.644 117.446 23.572 117.446 22.26C117.446 20.916 117.014 19.876 116.15 19.14C115.318 18.372 114.054 17.988 112.358 17.988H104.822V26.676ZM128.571 46.5C128.315 46.5 128.075 46.404 127.851 46.212C127.659 46.02 127.563 45.78 127.563 45.492C127.563 45.364 127.595 45.22 127.659 45.06L139.227 14.1C139.323 13.78 139.499 13.508 139.755 13.284C140.043 13.028 140.427 12.9 140.907 12.9H146.139C146.619 12.9 146.987 13.028 147.243 13.284C147.499 13.508 147.691 13.78 147.819 14.1L159.387 45.06C159.419 45.22 159.435 45.364 159.435 45.492C159.435 45.78 159.339 46.02 159.147 46.212C158.955 46.404 158.731 46.5 158.475 46.5H154.299C153.851 46.5 153.515 46.404 153.291 46.212C153.099 45.988 152.971 45.78 152.907 45.588L150.651 39.732H136.395L134.139 45.588C134.075 45.78 133.931 45.988 133.707 46.212C133.515 46.404 133.195 46.5 132.747 46.5H128.571ZM138.075 34.212H148.971L143.499 19.38L138.075 34.212ZM165.068 46.5C164.748 46.5 164.476 46.388 164.252 46.164C164.028 45.94 163.916 45.668 163.916 45.348V14.052C163.916 13.732 164.028 13.46 164.252 13.236C164.476 13.012 164.748 12.9 165.068 12.9H169.532C169.852 12.9 170.124 13.012 170.348 13.236C170.572 13.46 170.684 13.732 170.684 14.052V40.788H185.9C186.252 40.788 186.54 40.9 186.764 41.124C186.988 41.348 187.1 41.636 187.1 41.988V45.348C187.1 45.668 186.988 45.94 186.764 46.164C186.54 46.388 186.252 46.5 185.9 46.5H165.068Z" fill="white"/>
<path d="M212.209 3.60896C209.413 4.85824 204.859 7.94726 204.827 8.61151C204.819 8.77309 205.003 8.87206 205.346 8.88879C205.638 8.90302 206.011 9.0112 206.178 9.10933C206.88 9.53944 207.451 9.11741 211.104 5.44461C211.883 4.63682 212.832 3.87331 213.272 3.6788C213.676 3.50057 214.033 3.23007 214.04 3.08645C214.047 2.94283 214.035 2.83428 214.018 2.83344C213.984 2.83177 213.175 3.18822 212.209 3.60896Z" fill="white"/>
<path d="M228.579 4.28252C227.806 4.55213 226.947 4.85769 226.672 4.94756C226.071 5.14527 225.573 5.59462 225.264 6.24168C224.903 6.97861 224.954 7.06849 225.796 6.96064C226.69 6.87077 227.016 7.06849 227.171 7.82339C227.308 8.47046 227.531 8.6502 228.304 8.81196C228.906 8.91981 228.94 8.90183 229.473 8.02111C229.782 7.51783 230.108 7.10443 230.194 7.10443C230.452 7.10443 230.864 8.12895 230.864 8.77601C230.864 9.44105 230.658 9.76458 229.971 10.2139C229.267 10.6633 228.992 10.5914 227.892 9.69269C226.913 8.90183 226.861 8.88386 226.346 9.09954C226.037 9.22536 225.453 9.67471 225.023 10.0881C224.267 10.825 222.429 11.9574 222 11.9574C221.501 11.9574 221.209 12.5146 221.33 13.2515C221.433 13.8806 221.381 14.0424 220.986 14.4738C220.625 14.8692 220.247 15.031 219.32 15.2107C217.911 15.4803 217.808 15.6241 217.808 17.5473C217.808 18.9673 217.859 19.0212 219.509 19.2548C220.711 19.4166 221.175 19.165 222.171 17.799C222.79 16.9362 223.271 16.4869 224.096 16.0016C225.607 15.1388 226.38 15.031 227.119 15.5702C227.428 15.8038 227.755 16.0914 227.823 16.2352C227.909 16.361 228.15 16.5408 228.373 16.6306C228.597 16.7205 228.803 16.9721 228.837 17.2058C228.889 17.6552 229.455 17.8529 229.937 17.5653C230.177 17.4215 230.074 17.2597 229.267 16.4329C228.287 15.4444 227.823 14.4738 228.339 14.4738C228.562 14.4738 229.902 15.2107 231.002 15.9297C231.208 16.0735 231.517 16.5228 231.672 16.9542C231.981 17.8169 232.153 17.9967 232.462 17.745C232.582 17.6552 233.098 17.5293 233.613 17.4934C234.128 17.4395 234.764 17.3137 235.039 17.2058C235.434 17.0261 235.503 16.9003 235.503 16.3071C235.503 15.4444 236.035 14.8872 237.513 14.2042C238.904 13.5571 239.574 13.7368 239.11 14.6535C238.973 14.9411 239.024 14.995 239.42 15.1029C239.677 15.1568 240.141 15.3545 240.45 15.5522C240.88 15.8218 241 16.0375 241 16.4689V17.0081L239.213 16.8823C237.581 16.7744 237.358 16.7924 236.654 17.1519C235.606 17.6911 235.417 17.9427 235.606 18.6078C235.829 19.3447 237.083 21.1241 237.392 21.1241C237.53 21.1062 237.805 20.9983 237.976 20.8545C238.681 20.2973 238.87 20.495 238.904 21.8251C238.938 22.9395 238.904 23.0833 238.612 23.1372C238.32 23.1911 238.561 23.6225 240.158 26.067C242.392 29.4461 243.062 30.5964 243.062 31.1177C243.062 31.6209 243.577 32.0883 244.127 32.0883C244.865 32.0883 246.978 30.8121 248.61 29.3742L249.143 28.9069L248.576 27.9722C248.095 27.1993 247.923 27.0556 247.459 27.0556C246.635 27.0376 246.171 26.6781 245.724 25.6716C245.209 24.4853 245.501 24.3055 246.566 25.1503C247.545 25.9412 247.94 26.1569 248.422 26.1569C249.023 26.1569 250.414 27.0735 251.583 28.2598C252.459 29.1226 252.716 29.518 253.111 30.6504C253.369 31.3873 253.644 32.0703 253.73 32.1602C254.022 32.4837 254.074 31.3334 253.902 29.1226C253.421 23.3709 251.926 18.8055 248.937 14.1143C247.374 11.6339 243.938 7.91326 241.722 6.2956L240.278 5.25311L239.694 5.55867C239.368 5.72044 239.007 5.84625 238.904 5.84625C238.595 5.84625 237.564 4.94756 237.564 4.67794C237.564 4.53415 237.324 4.28252 237.032 4.12075C236.602 3.88709 235.846 3.83317 233.235 3.79722C230.074 3.76127 229.954 3.77925 228.579 4.28252Z" fill="white"/>
<path d="M219.698 7.73353C219.337 7.93125 219.251 8.14694 219.182 8.93779C219.096 9.87244 219.096 9.89041 218.564 9.83649C218.152 9.80054 217.997 9.87244 217.842 10.2319C217.705 10.5554 217.705 10.7352 217.877 10.9689C218.066 11.2385 218.1 11.2385 218.392 10.897C218.804 10.4117 219.182 10.4117 219.182 10.879C219.182 11.2924 219.337 11.3104 220.591 11.0407C221.416 10.861 222.103 10.4656 222.103 10.16C222.103 10.1061 221.776 9.63878 221.381 9.15348C220.969 8.66818 220.522 8.07504 220.385 7.85935C220.144 7.51785 220.093 7.49987 219.698 7.73353Z" fill="white"/>
<path d="M199.953 13.5853C198.389 16.0038 196.96 19.2873 196.237 22.1118C196.018 22.9416 195.783 23.7713 195.715 23.9654C195.379 24.8658 195.026 29.0849 195.295 28.7848C195.362 28.7318 195.463 28.0257 195.564 27.2137C195.9 24.142 195.833 24.3185 198.103 20.4701C198.978 18.9696 199.045 18.7577 198.641 18.7577C198.086 18.7577 198.541 18.1222 199.751 17.2219C201.315 16.0744 201.433 15.7743 200.945 14.3797C200.71 13.7442 200.609 13.1616 200.676 12.9498C200.861 12.3319 200.642 12.5261 199.953 13.5853Z" fill="white"/>
<path d="M222.36 19.7941C221.759 20.0457 220.797 20.3153 220.058 20.3872C218.856 20.5131 218.753 20.567 218.22 21.1961C217.911 21.5735 217.499 22.2206 217.31 22.634C216.966 23.4069 216.348 24.036 215.076 24.9347C214.647 25.2402 214.2 25.7794 213.908 26.3726C213.496 27.2174 213.427 27.5589 213.376 29.4461L213.307 31.5491L213.994 32.7713C214.939 34.4069 215.643 35.2338 217.189 36.474L218.495 37.5164L219.646 37.2109C220.299 37.0491 221.33 36.6717 221.965 36.3841C222.584 36.0965 223.219 35.8628 223.357 35.8628C223.511 35.8628 223.718 36.1504 223.821 36.5099C224.044 37.2289 223.941 37.2109 225.813 36.8334L226.346 36.7256L226.552 38.0916C226.655 38.8465 226.741 39.6913 226.741 39.9789C226.741 40.3204 226.947 40.6619 227.411 41.1292C227.944 41.6325 228.098 41.938 228.201 42.639C228.27 43.1064 228.425 43.7714 228.562 44.1129C228.889 44.9217 228.871 45.1554 228.373 46.4315C227.772 47.9773 227.806 48.7682 228.511 49.7388C229.404 50.979 230.177 53.2437 230.177 54.6277C230.177 55.2927 230.246 55.814 230.349 55.814C231.259 55.814 233.39 55.2927 234.249 54.8793C235.331 54.3401 235.468 54.2143 236.362 53.0999C236.636 52.7404 237.135 52.2551 237.478 52.0215C238.045 51.626 238.08 51.5182 238.08 50.6195C238.08 49.595 238.32 49.1636 239.901 47.3482C241.103 45.9642 241.223 45.6227 240.983 43.8792L240.777 42.3874L241.601 40.8237C242.048 39.9609 242.529 39.206 242.649 39.1521C242.958 39.0263 245.243 35.8269 245.467 35.2158C245.742 34.4968 245.69 34.4609 244.659 34.5507L243.663 34.6406L242.237 32.5556C240.794 30.4527 240.467 29.8236 240.021 28.2419C239.883 27.7566 239.574 26.9477 239.351 26.4445C238.44 24.4134 237.392 23.6046 234.781 22.9036C234.008 22.6879 233.218 22.4363 233.029 22.3464C232.805 22.2206 232.531 22.2565 232.05 22.4722C231.208 22.8856 229.163 22.7778 228.184 22.2745C227.514 21.933 227.428 21.7892 227.085 20.2614L226.896 19.4885L226.088 19.5065C225.642 19.5245 224.851 19.4885 224.336 19.4346C223.546 19.3447 223.219 19.3987 222.36 19.7941Z" fill="white"/>
<path d="M195.774 38.9214C195.857 39.1325 196.089 39.7848 196.301 40.3844C197.793 44.7067 200.534 48.8996 204.025 52.2188C205.199 53.3185 205.361 53.4168 205.835 53.2981C206.123 53.2267 206.524 53.0404 206.721 52.9024C207.066 52.6475 207.074 52.5209 206.927 51.5933C206.787 50.7912 206.838 50.2658 207.119 49.0423C207.387 47.8914 207.424 47.4209 207.285 47.1412C207.087 46.7569 205.113 45.5434 204.736 45.5661C204.616 45.5734 204.051 45.3554 203.482 45.0836C202.557 44.6351 202.372 44.4482 201.75 43.3692C200.814 41.7147 199.924 40.7599 198.729 40.1297C198.176 39.8389 197.641 39.565 197.536 39.5354C197.448 39.5047 197.019 39.2605 196.606 39.0152C195.707 38.4391 195.603 38.4274 195.774 38.9214Z" fill="white"/>
<path d="M244.522 45.1913C244.384 45.4789 243.938 45.9462 243.542 46.2338C242.958 46.6472 242.752 46.9168 242.598 47.5459C242.477 47.9952 242.254 48.7142 242.099 49.1635C241.773 50.0443 241.859 50.9609 242.271 50.9609C242.391 50.9609 242.89 50.5296 243.371 50.0083C244.058 49.2354 244.298 48.7861 244.59 47.7975C245.278 45.371 245.243 43.7713 244.522 45.1913Z" fill="white"/>
<path d="M253 30C253 46.0163 240.016 59 224 59C207.984 59 195 46.0163 195 30C195 13.9837 207.984 1 224 1C240.016 1 253 13.9837 253 30Z" stroke="white" stroke-width="2"/>
<path d="M271.288 46.5C270.968 46.5 270.696 46.388 270.472 46.164C270.248 45.94 270.136 45.668 270.136 45.348V18.804H261.256C260.936 18.804 260.664 18.692 260.44 18.468C260.216 18.244 260.104 17.972 260.104 17.652V14.1C260.104 13.748 260.216 13.46 260.44 13.236C260.664 13.012 260.936 12.9 261.256 12.9H285.736C286.088 12.9 286.376 13.012 286.6 13.236C286.824 13.46 286.936 13.748 286.936 14.1V17.652C286.936 17.972 286.824 18.244 286.6 18.468C286.376 18.692 286.088 18.804 285.736 18.804H276.904V45.348C276.904 45.668 276.792 45.94 276.568 46.164C276.344 46.388 276.056 46.5 275.704 46.5H271.288ZM292.959 46.5C292.639 46.5 292.367 46.388 292.143 46.164C291.919 45.94 291.807 45.668 291.807 45.348V14.052C291.807 13.732 291.919 13.46 292.143 13.236C292.367 13.012 292.639 12.9 292.959 12.9H297.471C297.823 12.9 298.095 13.012 298.287 13.236C298.511 13.46 298.623 13.732 298.623 14.052V45.348C298.623 45.668 298.511 45.94 298.287 46.164C298.095 46.388 297.823 46.5 297.471 46.5H292.959ZM307.35 46.5C306.998 46.5 306.71 46.388 306.486 46.164C306.262 45.94 306.15 45.668 306.15 45.348V14.1C306.15 13.748 306.262 13.46 306.486 13.236C306.71 13.012 306.998 12.9 307.35 12.9H311.142C311.59 12.9 311.926 13.028 312.15 13.284C312.374 13.508 312.518 13.684 312.582 13.812L321.846 31.092L331.206 13.812C331.27 13.684 331.414 13.508 331.638 13.284C331.862 13.028 332.198 12.9 332.646 12.9H336.39C336.742 12.9 337.03 13.012 337.254 13.236C337.478 13.46 337.59 13.748 337.59 14.1V45.348C337.59 45.668 337.478 45.94 337.254 46.164C337.03 46.388 336.742 46.5 336.39 46.5H332.358C332.006 46.5 331.718 46.388 331.494 46.164C331.302 45.94 331.206 45.668 331.206 45.348V24.564L324.486 37.38C324.326 37.668 324.118 37.924 323.862 38.148C323.606 38.34 323.27 38.436 322.854 38.436H320.886C320.438 38.436 320.086 38.34 319.83 38.148C319.606 37.924 319.414 37.668 319.254 37.38L312.534 24.564V45.348C312.534 45.668 312.422 45.94 312.198 46.164C311.974 46.388 311.702 46.5 311.382 46.5H307.35ZM346.209 46.5C345.889 46.5 345.617 46.388 345.393 46.164C345.169 45.94 345.057 45.668 345.057 45.348V14.1C345.057 13.748 345.169 13.46 345.393 13.236C345.617 13.012 345.889 12.9 346.209 12.9H367.329C367.681 12.9 367.969 13.012 368.193 13.236C368.417 13.46 368.529 13.748 368.529 14.1V17.268C368.529 17.588 368.417 17.86 368.193 18.084C367.969 18.308 367.681 18.42 367.329 18.42H351.537V26.916H366.273C366.625 26.916 366.913 27.028 367.137 27.252C367.361 27.444 367.473 27.716 367.473 28.068V31.044C367.473 31.396 367.361 31.684 367.137 31.908C366.913 32.1 366.625 32.196 366.273 32.196H351.537V40.98H367.713C368.065 40.98 368.353 41.092 368.577 41.316C368.801 41.54 368.913 41.828 368.913 42.18V45.348C368.913 45.668 368.801 45.94 368.577 46.164C368.353 46.388 368.065 46.5 367.713 46.5H346.209Z" fill="white"/>
</svg>
