<svg width="245" height="245" viewBox="0 0 245 245" fill="none" xmlns="http://www.w3.org/2000/svg">
<rect width="245" height="245" rx="122.5" fill="#F3F1F3"/>
<path d="M64.3845 179.732V108.136C64.3845 104.949 62.6849 103.462 59.7106 103.462H51V85.8281H71.183C80.9558 85.8281 84.9925 89.8647 84.9925 99.4251V171.022C84.9925 174.208 86.6921 175.696 89.6664 175.696H98.377V193.329H77.9815C68.4211 193.329 64.3845 189.293 64.3845 179.732Z" fill="#111111"/>
<path d="M169.474 160.187H149.079V103.462H128.258C125.284 103.462 123.584 105.161 123.584 108.136V115.359H106.588V99.0002C106.588 89.4398 110.625 85.8281 120.185 85.8281H198.368C207.928 85.8281 211.965 89.4398 211.965 99.0002V115.359H194.968V108.136C194.968 105.161 193.269 103.462 190.294 103.462H169.474V160.187Z" fill="#111111"/>
<path d="M63.5063 53H83.9018V73.3955H63.5063V53Z" fill="#D9D9D9"/>
<path d="M63.5063 53H83.9018V73.3955H63.5063V53Z" fill="url(#paint0_linear_79_10)"/>
<path d="M149.488 173.375H169.811V193.698H149.488V173.375Z" fill="#D9D9D9"/>
<path d="M149.488 173.375H169.811V193.698H149.488V173.375Z" fill="url(#paint1_linear_79_10)"/>
<defs>
<linearGradient id="paint0_linear_79_10" x1="79.2109" y1="54.3665" x2="66.994" y2="72.2125" gradientUnits="userSpaceOnUse">
<stop stop-color="#0057A8"/>
<stop offset="0.53125" stop-color="#D000D4"/>
</linearGradient>
<linearGradient id="paint1_linear_79_10" x1="165.136" y1="174.737" x2="152.963" y2="192.519" gradientUnits="userSpaceOnUse">
<stop stop-color="#0057A8"/>
<stop offset="0.53125" stop-color="#D000D4"/>
</linearGradient>
</defs>
</svg>
